<?xml version="1.0" standalone="no"?>
<!DOCTYPE svg PUBLIC "-//W3C//DTD SVG 20010904//EN"
 "http://www.w3.org/TR/2001/REC-SVG-20010904/DTD/svg10.dtd">
<svg version="1.0" xmlns="http://www.w3.org/2000/svg"
 width="707.000000pt" height="707.000000pt" viewBox="0 0 707.000000 707.000000"
 preserveAspectRatio="xMidYMid meet">
<metadata>
Created by potrace 1.11, written by Peter Selinger 2001-2013
</metadata>
<g transform="translate(0.000000,707.000000) scale(0.100000,-0.100000)"
fill="#000000" stroke="none">
<path d="M2027 5735 c-3 -9 -1 -3670 2 -3705 1 -13 24 -15 148 -13 l148 2 3
1709 2 1710 870 -1 870 0 0 -188 0 -188 -647 0 c-357 0 -663 0 -680 -1 l-33 0
0 -495 c0 -389 3 -495 13 -496 6 0 312 -1 680 -1 l667 -1 0 -187 0 -187 -657
-1 c-362 0 -668 -1 -680 -1 l-23 -1 0 -489 0 -490 605 2 c333 1 605 -2 605 -6
0 -5 4 -5 10 -2 9 6 65 8 118 6 l22 -1 0 -194 0 -194 -622 0 c-343 -1 -649 -1
-680 -1 l-58 -1 0 -490 c0 -269 3 -490 8 -491 51 -5 2325 -2 2329 4 3 6 7
3329 4 3657 l-1 55 -150 0 -150 0 -1 -25 c0 -14 -1 -782 -1 -1707 l-1 -1681
-863 -1 c-657 0 -863 3 -866 12 -4 10 -3 339 1 358 0 4 301 7 669 7 367 0 672
1 677 1 7 1 10 168 9 493 -1 271 -2 495 -3 498 0 3 -306 5 -678 5 l-678 0 0
185 0 185 670 2 c369 0 675 1 680 2 7 1 10 169 9 489 -1 268 -2 489 -3 492 0
3 -306 5 -678 5 l-678 0 0 190 0 190 670 2 c369 1 675 2 680 2 7 1 10 169 10
491 l0 490 -25 1 c-14 0 -541 1 -1172 2 -758 1 -1149 -1 -1151 -8z"/>
</g>
</svg>
