<?xml version="1.0" encoding="utf-8"?>
<!-- Generator: Adobe Illustrator 15.0.0, SVG Export Plug-In . SVG Version: 6.00 Build 0)  -->
<!DOCTYPE svg PUBLIC "-//W3C//DTD SVG 1.1//EN" "http://www.w3.org/Graphics/SVG/1.1/DTD/svg11.dtd">
<svg version="1.1" id="Calque_1" xmlns="http://www.w3.org/2000/svg" xmlns:xlink="http://www.w3.org/1999/xlink" x="0px" y="0px"
	 width="55px" height="40px" viewBox="0 0 55 40" enable-background="new 0 0 55 40" xml:space="preserve">
<g id="B75T6p_4_">
	<g>
		<path fill-rule="evenodd" clip-rule="evenodd" d="M27.535,36.179c-6.211,0-12.422,0-18.632,0c-2.287,0-3.584-1.277-3.585-3.555
			c-0.004-8.963-0.003-16.273,0-25.235c0.001-2.284,1.293-3.568,3.572-3.568c12.422,0,24.843-0.001,37.265,0
			c2.21,0,3.524,1.295,3.525,3.497c0.006,9.001,0.005,16.35,0,25.353c-0.001,2.203-1.315,3.508-3.514,3.508
			C39.956,36.181,33.746,36.18,27.535,36.179z M27.5,34.54c5.899,0,11.798,0.001,17.696,0c2.687,0,2.831-0.143,2.831-2.771
			c0.001-8.611,0.001-15.572-0.002-24.185c0-1.677-0.407-2.118-2.062-2.119c-12.309-0.008-24.618-0.008-36.927,0
			C7.385,5.466,6.974,5.907,6.974,7.582c-0.003,8.652-0.002,15.651-0.001,24.304c0,2.459,0.197,2.654,2.713,2.654
			C15.624,34.541,21.561,34.541,27.5,34.54z"/>
		<path fill-rule="evenodd" clip-rule="evenodd" d="M28.938,12.258c1.503,0,2.87,0,4.238,0c2.988,0,5.977-0.013,8.965,0.004
			c2.541,0.015,4.218,1.505,4.237,3.723c0.021,2.268-1.702,3.871-4.265,3.877c-7.313,0.019-14.627,0.006-21.94,0.009
			c-0.306,0-0.613,0.028-0.916,0.244c0.407,0,0.815,0,1.223,0c7.313,0,14.627-0.007,21.94,0.006c2.088,0.002,3.7,1.388,3.948,3.324
			c0.229,1.798-0.893,3.524-2.667,4.091c-0.185,0.059-0.379,0.129-0.568,0.129c-4.675,0.008-9.35,0.006-14.142,0.006
			c0-1.842,0-3.633,0-5.466c-0.614,1.104-1.065,2.213-1.774,3.122c-1.157,1.484-2.751,2.34-4.67,2.375
			c-2.438,0.045-4.878,0.084-7.313-0.004c-3.515-0.125-6.337-3.086-6.365-6.608c-0.01-1.171-0.016-2.372,0.22-3.509
			c0.642-3.11,3.326-5.236,6.493-5.268c1.926-0.02,3.858,0.094,5.778-0.028c3.307-0.21,6.394,1.641,7.577,5.512
			C28.938,15.992,28.938,14.186,28.938,12.258z"/>
	</g>
</g>
</svg>
