<?xml version="1.0" encoding="utf-8"?>
<!-- Generator: Adobe Illustrator 15.0.0, SVG Export Plug-In . SVG Version: 6.00 Build 0)  -->
<!DOCTYPE svg PUBLIC "-//W3C//DTD SVG 1.1//EN" "http://www.w3.org/Graphics/SVG/1.1/DTD/svg11.dtd">
<svg version="1.1" id="Calque_1" xmlns="http://www.w3.org/2000/svg" xmlns:xlink="http://www.w3.org/1999/xlink" x="0px" y="0px"
	 width="40px" height="40px" viewBox="0 0 40 40" enable-background="new 0 0 40 40" xml:space="preserve">
<g id="TdAOSX_4_">
	<g>
		<path fill="none" d="M3.154,36.873c0-11.248,0-22.498,0-33.746c11.23,0,22.461,0,33.691,0c0,11.248,0,22.498,0,33.746
			C25.615,36.873,14.385,36.873,3.154,36.873z M16.953,5.776c0-0.002,0-0.005,0-0.007c-1.479,0-2.959-0.002-4.439,0
			c-0.819,0.001-1.518,0.573-1.717,1.303c-0.236,0.865-0.416,1.745-0.617,2.619c-0.166,0.72-0.321,1.443-0.488,2.161
			c-0.182,0.777-0.38,1.55-0.559,2.328c-0.248,1.074-0.478,2.151-0.728,3.224c-0.251,1.072-0.522,2.14-0.776,3.212
			c-0.215,0.916-0.412,1.837-0.626,2.754c-0.272,1.168-0.554,2.334-0.827,3.502c-0.123,0.528-0.187,1.079-0.371,1.585
			c-0.23,0.633,0.202,1.436,0.926,1.424c0.502-0.008,1.004,0.008,1.507,0.008c0.789,0,1.58,0.027,2.366-0.018
			c0.598-0.037,1.09-0.351,1.324-0.914c0.205-0.496,0.334-1.027,0.469-1.549c0.152-0.584,0.27-1.178,0.408-1.764
			c0.169-0.719,0.388-1.43,0.504-2.156c0.123-0.76,0.945-1.465,1.726-1.465c1.593,0,3.188,0.031,4.765-0.245
			c0.807-0.142,1.621-0.272,2.405-0.495c0.971-0.275,1.913-0.643,2.801-1.138c1.356-0.754,2.533-1.71,3.416-2.994
			c0.721-1.045,1.144-2.203,1.314-3.468c0.165-1.216,0.105-2.399-0.249-3.574c-0.221-0.735-0.602-1.374-1.118-1.929
			c-0.981-1.054-2.244-1.602-3.611-1.954c-1.12-0.289-2.271-0.391-3.419-0.436C19.879,5.733,18.415,5.776,16.953,5.776z
			 M31.467,11.5c0.012,0.133,0,0.199,0.024,0.248c0.396,0.792,0.496,1.651,0.549,2.516c0.048,0.753-0.042,1.5-0.192,2.239
			c-0.22,1.072-0.646,2.053-1.285,2.942c-0.85,1.185-1.941,2.091-3.201,2.807c-1.171,0.663-2.418,1.136-3.737,1.401
			c-0.837,0.168-1.676,0.348-2.522,0.436c-0.924,0.098-1.857,0.099-2.787,0.135c-0.341,0.013-0.684,0.018-1.023,0
			c-0.714-0.038-1.479,0.516-1.705,1.219c-0.156,0.488-0.254,0.994-0.371,1.494c-0.107,0.45-0.205,0.902-0.308,1.352
			c-0.171,0.754-0.356,1.506-0.514,2.263c-0.179,0.853-0.914,1.563-1.794,1.54c-0.645-0.018-1.291,0-1.938-0.008
			c-0.157,0-0.25,0.041-0.283,0.205c-0.035,0.186-0.078,0.367-0.135,0.545c-0.25,0.783,0.228,1.451,1.047,1.452
			c1.193,0.002,2.387,0.021,3.579-0.013c0.308-0.01,0.635-0.143,0.913-0.294c0.635-0.344,0.771-1.001,0.921-1.634
			c0.2-0.828,0.396-1.658,0.59-2.489c0.157-0.675,0.337-1.347,0.461-2.029c0.152-0.84,1.073-1.423,1.767-1.411
			c1.844,0.035,3.687-0.023,5.5-0.41c0.84-0.18,1.687-0.356,2.499-0.629c1.108-0.374,2.146-0.908,3.102-1.598
			c2.106-1.52,3.36-3.54,3.619-6.135c0.097-0.971,0.036-1.952-0.222-2.896c-0.299-1.106-0.912-2.031-1.806-2.754
			C32,11.82,31.752,11.687,31.467,11.5z"/>
		<path fill-rule="evenodd" clip-rule="evenodd" d="M16.953,5.776c1.462,0,2.926-0.043,4.385,0.015
			c1.147,0.045,2.299,0.147,3.419,0.436c1.367,0.352,2.63,0.9,3.611,1.954c0.517,0.555,0.897,1.193,1.118,1.929
			c0.354,1.175,0.414,2.358,0.249,3.574c-0.171,1.265-0.594,2.423-1.314,3.468c-0.883,1.283-2.06,2.24-3.416,2.994
			c-0.888,0.495-1.83,0.863-2.801,1.138c-0.784,0.223-1.599,0.354-2.405,0.495c-1.577,0.276-3.172,0.245-4.765,0.245
			c-0.78,0-1.603,0.705-1.726,1.465c-0.116,0.727-0.335,1.438-0.504,2.156c-0.139,0.586-0.256,1.18-0.408,1.764
			c-0.135,0.521-0.264,1.053-0.469,1.549c-0.234,0.563-0.727,0.877-1.324,0.914c-0.786,0.045-1.577,0.018-2.366,0.018
			c-0.503,0-1.005-0.016-1.507-0.008c-0.724,0.012-1.156-0.791-0.926-1.424c0.185-0.506,0.248-1.057,0.371-1.585
			c0.273-1.168,0.555-2.334,0.827-3.502c0.214-0.917,0.411-1.839,0.626-2.754c0.254-1.073,0.525-2.141,0.776-3.212
			c0.25-1.073,0.479-2.15,0.728-3.224c0.179-0.778,0.377-1.551,0.559-2.328c0.167-0.718,0.322-1.44,0.488-2.161
			c0.201-0.874,0.381-1.754,0.617-2.619c0.199-0.73,0.897-1.302,1.717-1.303c1.48-0.002,2.96,0,4.439,0
			C16.953,5.771,16.953,5.773,16.953,5.776z M16.951,17.45c0.003,0.021,0.005,0.043,0.008,0.065c0.721-0.093,1.44-0.188,2.161-0.277
			c0.716-0.092,1.37-0.354,1.985-0.714c0.712-0.415,1.26-0.976,1.609-1.74c0.345-0.749,0.416-1.532,0.318-2.323
			c-0.096-0.764-0.533-1.333-1.229-1.691c-0.569-0.292-1.178-0.426-1.811-0.483c-0.9-0.08-1.807-0.197-2.693,0.039
			c-0.594,0.16-1.014,0.562-1.177,1.18c-0.093,0.358-0.163,0.723-0.252,1.083c-0.14,0.562-0.294,1.121-0.429,1.684
			c-0.141,0.592-0.241,1.195-0.406,1.781c-0.176,0.624,0.171,1.351,1,1.394C16.341,17.463,16.646,17.45,16.951,17.45z"/>
		<path fill-rule="evenodd" clip-rule="evenodd" d="M31.467,11.5c0.285,0.186,0.533,0.319,0.747,0.494
			c0.894,0.724,1.507,1.648,1.806,2.754c0.258,0.944,0.318,1.925,0.222,2.896c-0.259,2.595-1.513,4.615-3.619,6.135
			c-0.956,0.689-1.993,1.224-3.102,1.598c-0.813,0.272-1.659,0.449-2.499,0.629c-1.813,0.387-3.656,0.445-5.5,0.41
			c-0.693-0.012-1.614,0.571-1.767,1.411c-0.124,0.683-0.304,1.354-0.461,2.029c-0.194,0.831-0.39,1.661-0.59,2.489
			c-0.15,0.633-0.286,1.29-0.921,1.634c-0.278,0.151-0.605,0.284-0.913,0.294c-1.192,0.033-2.386,0.015-3.579,0.013
			c-0.819-0.001-1.297-0.669-1.047-1.452c0.057-0.178,0.1-0.359,0.135-0.545c0.033-0.164,0.126-0.205,0.283-0.205
			c0.646,0.008,1.293-0.01,1.938,0.008c0.88,0.023,1.615-0.688,1.794-1.54c0.157-0.757,0.343-1.509,0.514-2.263
			c0.103-0.449,0.2-0.901,0.308-1.352c0.117-0.5,0.215-1.006,0.371-1.494c0.226-0.703,0.991-1.257,1.705-1.219
			c0.34,0.018,0.683,0.013,1.023,0c0.93-0.036,1.863-0.037,2.787-0.135c0.847-0.088,1.686-0.268,2.522-0.436
			c1.319-0.266,2.566-0.738,3.737-1.401c1.26-0.716,2.352-1.623,3.201-2.807c0.64-0.89,1.065-1.87,1.285-2.942
			c0.15-0.739,0.24-1.486,0.192-2.239c-0.053-0.865-0.153-1.724-0.549-2.516C31.467,11.7,31.479,11.633,31.467,11.5z"/>
		<path fill-rule="evenodd" clip-rule="evenodd" fill="none" d="M16.951,17.45c-0.305,0-0.61,0.013-0.914-0.002
			c-0.829-0.043-1.176-0.77-1-1.394c0.165-0.585,0.266-1.188,0.406-1.781c0.135-0.563,0.289-1.123,0.429-1.684
			c0.089-0.36,0.159-0.725,0.252-1.083c0.163-0.618,0.583-1.021,1.177-1.18c0.887-0.236,1.793-0.119,2.693-0.039
			c0.633,0.057,1.241,0.19,1.811,0.483c0.695,0.358,1.133,0.927,1.229,1.691c0.098,0.791,0.026,1.574-0.318,2.323
			c-0.35,0.764-0.897,1.325-1.609,1.74c-0.615,0.36-1.27,0.622-1.985,0.714c-0.721,0.09-1.44,0.185-2.161,0.277
			C16.956,17.493,16.954,17.471,16.951,17.45z"/>
	</g>
</g>
</svg>
