<?xml version="1.0" encoding="utf-8"?>
<!-- Generator: Adobe Illustrator 15.0.0, SVG Export Plug-In . SVG Version: 6.00 Build 0)  -->
<!DOCTYPE svg PUBLIC "-//W3C//DTD SVG 1.1//EN" "http://www.w3.org/Graphics/SVG/1.1/DTD/svg11.dtd">
<svg version="1.1" id="Calque_1" xmlns="http://www.w3.org/2000/svg" xmlns:xlink="http://www.w3.org/1999/xlink" x="0px" y="0px"
	 width="50px" height="50px" viewBox="0 0 50 50" enable-background="new 0 0 50 50" xml:space="preserve">
<g>
	<path fill="#231F20" d="M30.771,33.378l13.73,13.73l2.121-2.121L32.982,31.345l0.303-0.351c2.664-3.094,4.131-7.03,4.131-11.083
		c0-9.383-7.635-17.02-17.02-17.02s-17.02,7.637-17.02,17.02c0,9.385,7.635,17.02,17.02,17.02c3.615,0,7.084-1.141,10.029-3.301
		L30.771,33.378z M20.396,33.931c-7.73,0-14.02-6.289-14.02-14.02s6.289-14.02,14.02-14.02s14.02,6.289,14.02,14.02
		S28.127,33.931,20.396,33.931z"/>
</g>
</svg>
